<svg width="15" height="36" viewBox="0 0 15 36" fill="none" xmlns="http://www.w3.org/2000/svg">
<g clip-path="url(#clip0_6511_1118)">
<path d="M6.25891 24.63L5.83891 24.3033C4.81224 23.4322 3.83224 22.4522 2.89891 21.3633C1.21891 19.4033 0.378906 17.77 0.378906 16.4633C0.378906 15.4056 0.643351 14.4256 1.17224 13.5233C1.70113 12.6211 2.41668 11.9056 3.31891 11.3767C4.22113 10.8478 5.20113 10.5833 6.25891 10.5833C7.31668 10.5833 8.29668 10.8478 9.19891 11.3767C10.1011 11.9056 10.8167 12.6211 11.3456 13.5233C11.8745 14.4256 12.1389 15.4056 12.1389 16.4633C12.1389 17.77 11.2989 19.4033 9.61891 21.3633C8.71668 22.4211 7.73668 23.4011 6.67891 24.3033L6.25891 24.63ZM6.25891 11.8433C5.41891 11.8433 4.64891 12.0533 3.94891 12.4733C3.24891 12.8933 2.68891 13.4533 2.26891 14.1533C1.84891 14.8533 1.63891 15.6311 1.63891 16.4867C1.63891 17.3422 2.21446 18.4856 3.36557 19.9167C4.17446 20.9433 5.13891 21.9544 6.25891 22.95C7.37891 21.9544 8.34335 20.9433 9.15224 19.9167C10.3034 18.4856 10.8789 17.3422 10.8789 16.4867C10.8789 15.6311 10.6689 14.8533 10.2489 14.1533C9.82891 13.4533 9.26891 12.8933 8.56891 12.4733C7.86891 12.0533 7.09891 11.8433 6.25891 11.8433ZM6.25891 18.7967C5.60557 18.7967 5.05335 18.5711 4.60224 18.12C4.15113 17.6689 3.92557 17.1167 3.92557 16.4633C3.92557 15.81 4.15113 15.2578 4.60224 14.8067C5.05335 14.3556 5.60557 14.13 6.25891 14.13C6.91224 14.13 7.46446 14.3556 7.91557 14.8067C8.36668 15.2578 8.59224 15.81 8.59224 16.4633C8.59224 17.1167 8.36668 17.6689 7.91557 18.12C7.46446 18.5711 6.91224 18.7967 6.25891 18.7967ZM6.25891 15.2967C5.9478 15.2967 5.67557 15.4133 5.44224 15.6467C5.20891 15.88 5.09224 16.1522 5.09224 16.4633C5.09224 16.7744 5.20891 17.0467 5.44224 17.28C5.67557 17.5133 5.9478 17.63 6.25891 17.63C6.57002 17.63 6.84224 17.5133 7.07557 17.28C7.30891 17.0467 7.42557 16.7744 7.42557 16.4633C7.42557 16.1522 7.30891 15.88 7.07557 15.6467C6.84224 15.4133 6.57002 15.2967 6.25891 15.2967Z" fill="#B6B6B6"/>
</g>
<defs>
<clipPath id="clip0_6511_1118">
<rect width="14" height="35" fill="white" transform="matrix(1 0 0 -1 0.378906 35.13)"/>
</clipPath>
</defs>
</svg>
