<svg width="26" height="26" viewBox="0 0 26 26" fill="none" xmlns="http://www.w3.org/2000/svg">
<g clip-path="url(#clip0_6511_1160)">
<g clip-path="url(#clip1_6511_1160)">
<g clip-path="url(#clip2_6511_1160)">
<mask id="mask0_6511_1160" style="mask-type:luminance" maskUnits="userSpaceOnUse" x="0" y="0" width="25" height="25">
<path d="M24.4648 0.496521H0.464844V24.4965H24.4648V0.496521Z" fill="white"/>
</mask>
<g mask="url(#mask0_6511_1160)">
<path d="M21.4648 24.4965H19.4648V19.4535C19.464 18.6695 19.1522 17.9179 18.5979 17.3635C18.0435 16.8091 17.2918 16.4973 16.5078 16.4965H8.42184C7.63783 16.4973 6.88617 16.8091 6.3318 17.3635C5.77743 17.9179 5.46563 18.6695 5.46484 19.4535V24.4965H3.46484V19.4535C3.46642 18.1393 3.98919 16.8794 4.91846 15.9501C5.84773 15.0209 7.10764 14.4981 8.42184 14.4965H16.5078C17.822 14.4981 19.0819 15.0209 20.0112 15.9501C20.9405 16.8794 21.4632 18.1393 21.4648 19.4535V24.4965Z" fill="#253D4E"/>
<path d="M12.4648 12.4965C11.2782 12.4965 10.1181 12.1446 9.13142 11.4853C8.14472 10.826 7.37569 9.88898 6.92156 8.79262C6.46744 7.69626 6.34862 6.48986 6.58013 5.32598C6.81164 4.1621 7.38308 3.09299 8.2222 2.25388C9.06131 1.41476 10.1304 0.843323 11.2943 0.611812C12.4582 0.380301 13.6646 0.499121 14.7609 0.953247C15.8573 1.40737 16.7944 2.1764 17.4537 3.1631C18.1129 4.14979 18.4648 5.30983 18.4648 6.49652C18.4632 8.08733 17.8306 9.61253 16.7057 10.7374C15.5809 11.8623 14.0557 12.4949 12.4648 12.4965ZM12.4648 2.49652C11.6737 2.49652 10.9004 2.73112 10.2426 3.17064C9.58476 3.61017 9.07207 4.23488 8.76932 4.9658C8.46657 5.69669 8.38736 6.50097 8.5417 7.27689C8.69604 8.0528 9.077 8.76554 9.63641 9.32495C10.1958 9.88437 10.9086 10.2653 11.6845 10.4197C12.4604 10.574 13.2647 10.4948 13.9956 10.192C14.7265 9.8893 15.3512 9.37661 15.7907 8.71881C16.2302 8.06101 16.4648 7.28764 16.4648 6.49652C16.4648 5.43565 16.0434 4.41824 15.2933 3.66809C14.5431 2.91795 13.5257 2.49652 12.4648 2.49652Z" fill="#253D4E"/>
</g>
</g>
</g>
</g>
<defs>
<clipPath id="clip0_6511_1160">
<rect width="25" height="25" fill="white" transform="translate(0.0195312 0.130005)"/>
</clipPath>
<clipPath id="clip1_6511_1160">
<rect width="25" height="25" fill="white" transform="translate(0.0195312 0.130005)"/>
</clipPath>
<clipPath id="clip2_6511_1160">
<rect width="25" height="25" fill="white" transform="translate(0.0195312 0.130005)"/>
</clipPath>
</defs>
</svg>
