<svg width="26" height="26" viewBox="0 0 26 26" fill="none" xmlns="http://www.w3.org/2000/svg">
<g clip-path="url(#clip0_6511_1136)">
<g clip-path="url(#clip1_6511_1136)">
<g clip-path="url(#clip2_6511_1136)">
<mask id="mask0_6511_1136" style="mask-type:luminance" maskUnits="userSpaceOnUse" x="0" y="0" width="25" height="25">
<path d="M24.9375 0.496521H0.9375V24.4965H24.9375V0.496521Z" fill="white"/>
</mask>
<g mask="url(#mask0_6511_1136)">
<path d="M18.4384 1.41351C17.3124 1.43102 16.2109 1.74536 15.2452 2.32478C14.2795 2.9042 13.4838 3.72818 12.9384 4.71351C12.3931 3.72818 11.5974 2.9042 10.6317 2.32478C9.66598 1.74536 8.56449 1.43102 7.43844 1.41351C5.64338 1.4915 3.95214 2.27676 2.73422 3.59774C1.5163 4.91872 0.870684 6.66803 0.938435 8.46351C0.938435 15.2385 11.8944 23.0635 12.3604 23.3955L12.9384 23.8045L13.5164 23.3955C13.9824 23.0655 24.9384 15.2385 24.9384 8.46351C25.0062 6.66803 24.3606 4.91872 23.1427 3.59774C21.9247 2.27676 20.2335 1.4915 18.4384 1.41351ZM12.9384 21.3425C9.68544 18.9125 2.93844 12.9425 2.93844 8.46351C2.87008 7.19822 3.30481 5.95724 4.1478 5.01121C4.9908 4.06518 6.17367 3.49086 7.43844 3.41351C8.70321 3.49086 9.88608 4.06518 10.7291 5.01121C11.5721 5.95724 12.0068 7.19822 11.9384 8.46351H13.9384C13.8701 7.19822 14.3048 5.95724 15.1478 5.01121C15.9908 4.06518 17.1737 3.49086 18.4384 3.41351C19.7032 3.49086 20.8861 4.06518 21.7291 5.01121C22.5721 5.95724 23.0068 7.19822 22.9384 8.46351C22.9384 12.9445 16.1914 18.9125 12.9384 21.3425Z" fill="#253D4E"/>
</g>
</g>
</g>
</g>
<defs>
<clipPath id="clip0_6511_1136">
<rect width="25" height="25" fill="white" transform="translate(0.160156 0.130005)"/>
</clipPath>
<clipPath id="clip1_6511_1136">
<rect width="25" height="25" fill="white" transform="translate(0.160156 0.130005)"/>
</clipPath>
<clipPath id="clip2_6511_1136">
<rect width="25" height="25" fill="white" transform="translate(0.160156 0.130005)"/>
</clipPath>
</defs>
</svg>
